<mxfile host="app.diagrams.net" modified="2024-05-07T16:07:53.240Z" agent="Mozilla/5.0 (Windows NT 10.0; Win64; x64) AppleWebKit/537.36 (KHTML, like Gecko) Chrome/124.0.0.0 Safari/537.36" version="24.3.1" etag="kGPb1QnylIfYbBBeOAel" type="github">
  <diagram name="PÃ¡gina-1" id="C35zJi_DakTRjdweqi-p">
    <mxGraphModel>
      <root>
        <mxCell id="0" />
        <mxCell id="1" parent="0" />
      </root>
    </mxGraphModel>
  </diagram>
</mxfile>
